<svg width="55" height="49" viewBox="0 0 55 49" fill="none" xmlns="http://www.w3.org/2000/svg">
<g clip-path="url(#clip0)">
<path d="M14.6999 17.5C14.9999 17.5 16.2999 17.3 16.4999 17L23.8999 1.39999C24.1999 0.899992 23.9999 0.399993 23.4999 0.0999925C22.9999 -0.100007 22.3999 -7.48038e-06 22.0999 0.499993L13.7999 16.1C13.5999 16.6 13.6999 17.1 14.1999 17.4C14.3999 17.4 14.4999 17.5 14.6999 17.5Z" fill="black"/>
<path d="M39.6 17.5C39.8 17.5 39.9 17.5 40.1 17.4C40.6 17.1 40.7 16.6 40.5 16.1L32.1 0.499993C31.9 -7.48038e-06 31.3 -0.100007 30.8 0.0999925C30.3 0.399993 30.2 0.899992 30.4 1.39999L37.8 17C38 17.3 39.3 17.5 39.6 17.5Z" fill="black"/>
<path d="M53.3 15.6H1C0.5 15.6 0 16.4 0 17.3C0 18.3 0.4 19 1 19H2.5L9.2 46.6C9.3 47.7 10.2 48.6 11.3 48.6H43C44.1 48.6 45 47.7 45.1 46.6L51.8 19H53.3C53.8 19 54.3 18.2 54.3 17.3C54.3 16.3 53.8 15.6 53.3 15.6ZM41.8 43.9C41.7 44.8 41 45.5 40.1 45.5H14.2C13.3 45.5 12.5 44.8 12.5 43.9L6.3 18.6H48L41.8 43.9Z" fill="black"/>
</g>
<defs>
<clipPath id="clip0">
<rect width="54.3" height="48.6" fill="white"/>
</clipPath>
</defs>
</svg>
